<svg width="17" height="16" viewBox="0 0 17 16" fill="none" xmlns="http://www.w3.org/2000/svg">
<g clip-path="url(#clip0_854_49262)">
<path d="M8.4987 14.6654C12.1806 14.6654 15.1654 11.6806 15.1654 7.9987C15.1654 4.3168 12.1806 1.33203 8.4987 1.33203C4.8168 1.33203 1.83203 4.3168 1.83203 7.9987C1.83203 11.6806 4.8168 14.6654 8.4987 14.6654Z" stroke="url(#paint0_linear_854_49262)" stroke-width="2"/>
<path d="M8.96836 7.99841L11.0668 5.90304C11.1296 5.84031 11.1648 5.75523 11.1648 5.66652C11.1648 5.57781 11.1296 5.49273 11.0668 5.43C11.0041 5.36727 10.919 5.33203 10.8303 5.33203C10.7416 5.33203 10.6566 5.36727 10.5938 5.43L8.4987 7.5287L6.40355 5.43C6.34083 5.36727 6.25576 5.33203 6.16705 5.33203C6.07835 5.33203 5.99328 5.36727 5.93056 5.43C5.86784 5.49273 5.8326 5.57781 5.8326 5.66652C5.8326 5.75523 5.86784 5.84031 5.93056 5.90304L8.02904 7.99841L5.93056 10.0938C5.89934 10.1248 5.87456 10.1616 5.85765 10.2022C5.84074 10.2428 5.83203 10.2863 5.83203 10.3303C5.83203 10.3743 5.84074 10.4178 5.85765 10.4584C5.87456 10.499 5.89934 10.5359 5.93056 10.5668C5.96152 10.598 5.99836 10.6228 6.03896 10.6397C6.07955 10.6567 6.12308 10.6654 6.16705 10.6654C6.21103 10.6654 6.25456 10.6567 6.29515 10.6397C6.33574 10.6228 6.37258 10.598 6.40355 10.5668L8.4987 8.46812L10.5938 10.5668C10.6248 10.598 10.6617 10.6228 10.7022 10.6397C10.7428 10.6567 10.7864 10.6654 10.8303 10.6654C10.8743 10.6654 10.9179 10.6567 10.9584 10.6397C10.999 10.6228 11.0359 10.598 11.0668 10.5668C11.0981 10.5359 11.1228 10.499 11.1397 10.4584C11.1567 10.4178 11.1654 10.3743 11.1654 10.3303C11.1654 10.2863 11.1567 10.2428 11.1397 10.2022C11.1228 10.1616 11.0981 10.1248 11.0668 10.0938L8.96836 7.99841Z" fill="url(#paint1_linear_854_49262)" stroke="url(#paint2_linear_854_49262)" stroke-width="0.5" stroke-linecap="round"/>
</g>
<defs>
<linearGradient id="paint0_linear_854_49262" x1="1.83203" y1="1.33203" x2="16.7012" y2="3.35028" gradientUnits="userSpaceOnUse">
<stop stop-color="#AB333E"/>
<stop offset="1" stop-color="#F0555D"/>
</linearGradient>
<linearGradient id="paint1_linear_854_49262" x1="5.83203" y1="5.33203" x2="11.7797" y2="6.13933" gradientUnits="userSpaceOnUse">
<stop stop-color="#AB333E"/>
<stop offset="1" stop-color="#F0555D"/>
</linearGradient>
<linearGradient id="paint2_linear_854_49262" x1="5.83203" y1="5.33203" x2="11.7797" y2="6.13933" gradientUnits="userSpaceOnUse">
<stop stop-color="#AB333E"/>
<stop offset="1" stop-color="#F0555D"/>
</linearGradient>
<clipPath id="clip0_854_49262">
<rect width="16" height="16" fill="white" transform="translate(0.5)"/>
</clipPath>
</defs>
</svg>
