<svg width="25" height="24" viewBox="0 0 25 24" fill="none" xmlns="http://www.w3.org/2000/svg">
<path d="M12.25 0C5.63327 0 0.25 5.38327 0.25 12C0.25 18.6167 5.63327 24 12.25 24C18.8667 24 24.25 18.6167 24.25 12C24.25 5.38327 18.8667 0 12.25 0ZM12.3654 5.53846C13.1869 5.53846 13.99 5.78208 14.6731 6.23851C15.3562 6.69494 15.8886 7.34368 16.203 8.1027C16.5174 8.86172 16.5997 9.69692 16.4394 10.5027C16.2791 11.3085 15.8835 12.0486 15.3026 12.6295C14.7217 13.2104 13.9815 13.6061 13.1758 13.7663C12.37 13.9266 11.5348 13.8444 10.7758 13.53C10.0168 13.2156 9.36802 12.6832 8.91159 12.0001C8.45516 11.317 8.21154 10.5139 8.21154 9.69231C8.21154 8.59064 8.64917 7.53409 9.42817 6.7551C10.2072 5.9761 11.2637 5.53846 12.3654 5.53846ZM12.25 22.1538C10.8495 22.1544 9.46409 21.8645 8.18131 21.3025C6.89854 20.7404 5.74627 19.9185 4.79731 18.8885C5.30731 16.2473 9.88808 15.6923 12.25 15.6923C14.6119 15.6923 19.1927 16.2473 19.7027 18.8879C18.7538 19.9181 17.6016 20.7402 16.3188 21.3024C15.036 21.8645 13.6506 22.1545 12.25 22.1538Z" fill="url(#paint0_linear_2177_2774)"/>
<defs>
<linearGradient id="paint0_linear_2177_2774" x1="0.25" y1="0" x2="27.0145" y2="3.63286" gradientUnits="userSpaceOnUse">
<stop stop-color="#AB333E"/>
<stop offset="1" stop-color="#F0555D"/>
</linearGradient>
</defs>
</svg>
